<svg xmlns="http://www.w3.org/2000/svg" width="1440" height="900"><path d="M720,481L853,414L725,394Z" fill="#46b3c3" stroke="#46b3c3" stroke-width="1.51"/><path d="M720,481L842,575L853,414Z" fill="#36a6c3" stroke="#36a6c3" stroke-width="1.51"/><path d="M720,481L705,601L842,575Z" fill="#31a1c2" stroke="#31a1c2" stroke-width="1.51"/><path d="M534,478L705,601L720,481Z" fill="#49aec2" stroke="#49aec2" stroke-width="1.51"/><path d="M725,394L580,430L720,481Z" fill="#50bac3" stroke="#50bac3" stroke-width="1.51"/><path d="M853,414L848,239L725,394Z" fill="#5db7bf" stroke="#5db7bf" stroke-width="1.51"/><path d="M725,394L565,220L580,430Z" fill="#71c6be" stroke="#71c6be" stroke-width="1.51"/><path d="M853,414L977,323L848,239Z" fill="#61b0be" stroke="#61b0be" stroke-width="1.51"/><path d="M1055,366L977,323L853,414Z" fill="#52a2bb" stroke="#52a2bb" stroke-width="1.51"/><path d="M842,575L996,576L853,414Z" fill="#2798c1" stroke="#2798c1" stroke-width="1.51"/><path d="M705,601L897,657L842,575Z" fill="#2c8ebc" stroke="#2c8ebc" stroke-width="1.51"/><path d="M848,239L685,210L725,394Z" fill="#7ac5be" stroke="#7ac5be" stroke-width="1.51"/><path d="M580,430L534,478L720,481Z" fill="#57bbc2" stroke="#57bbc2" stroke-width="1.51"/><path d="M484,398L534,478L580,430Z" fill="#6ac3bf" stroke="#6ac3bf" stroke-width="1.51"/><path d="M897,657L996,576L842,575Z" fill="#2086bb" stroke="#2086bb" stroke-width="1.51"/><path d="M848,239L768,179L685,210Z" fill="#90cbbc" stroke="#90cbbc" stroke-width="1.51"/><path d="M847,85L768,179L848,239Z" fill="#96c8bc" stroke="#96c8bc" stroke-width="1.51"/><path d="M977,323L944,180L848,239Z" fill="#7fb5bb" stroke="#7fb5bb" stroke-width="1.51"/><path d="M996,576L1055,366L853,414Z" fill="#3599be" stroke="#3599be" stroke-width="1.51"/><path d="M534,478L523,569L705,601Z" fill="#53aebf" stroke="#53aebf" stroke-width="1.51"/><path d="M705,601L717,768L897,657Z" fill="#3284b6" stroke="#3284b6" stroke-width="1.51"/><path d="M1055,366L1039,301L977,323Z" fill="#5e9db6" stroke="#5e9db6" stroke-width="1.51"/><path d="M897,657L980,663L996,576Z" fill="#2378b5" stroke="#2378b5" stroke-width="1.51"/><path d="M996,576L1101,521L1055,366Z" fill="#3187b8" stroke="#3187b8" stroke-width="1.51"/><path d="M565,220L484,398L580,430Z" fill="#7cccbc" stroke="#7cccbc" stroke-width="1.51"/><path d="M534,478L413,588L523,569Z" fill="#6ab5be" stroke="#6ab5be" stroke-width="1.51"/><path d="M1039,301L944,180L977,323Z" fill="#76a9b7" stroke="#76a9b7" stroke-width="1.51"/><path d="M685,210L565,220L725,394Z" fill="#86cdbc" stroke="#86cdbc" stroke-width="1.51"/><path d="M558,126L565,220L685,210Z" fill="#a6d9b9" stroke="#a6d9b9" stroke-width="1.51"/><path d="M1039,301L1141,184L944,180Z" fill="#85a6b2" stroke="#85a6b2" stroke-width="1.51"/><path d="M1055,366L1069,308L1039,301Z" fill="#6099b3" stroke="#6099b3" stroke-width="1.51"/><path d="M523,569L604,703L705,601Z" fill="#4f9cba" stroke="#4f9cba" stroke-width="1.51"/><path d="M897,657L915,767L980,663Z" fill="#256fb0" stroke="#256fb0" stroke-width="1.51"/><path d="M980,663L1049,628L996,576Z" fill="#2374b3" stroke="#2374b3" stroke-width="1.51"/><path d="M1055,366L1233,388L1069,308Z" fill="#588db1" stroke="#588db1" stroke-width="1.51"/><path d="M1049,628L1101,521L996,576Z" fill="#2379b5" stroke="#2379b5" stroke-width="1.51"/><path d="M604,703L717,768L705,601Z" fill="#4389b4" stroke="#4389b4" stroke-width="1.51"/><path d="M449,756L632,758L604,703Z" fill="#5986ae" stroke="#5986ae" stroke-width="1.51"/><path d="M604,703L632,758L717,768Z" fill="#4a80af" stroke="#4a80af" stroke-width="1.51"/><path d="M980,663L1118,829L1049,628Z" fill="#255ca7" stroke="#255ca7" stroke-width="1.51"/><path d="M818,826L915,767L897,657Z" fill="#2d6bae" stroke="#2d6bae" stroke-width="1.51"/><path d="M723,41L558,126L685,210Z" fill="#abdaba" stroke="#abdaba" stroke-width="1.51"/><path d="M944,180L847,85L848,239Z" fill="#93c2bb" stroke="#93c2bb" stroke-width="1.51"/><path d="M717,768L818,826L897,657Z" fill="#3472af" stroke="#3472af" stroke-width="1.51"/><path d="M842,889L818,826L696,942Z" fill="#2a6190" stroke="#2a6190" stroke-width="1.51"/><path d="M565,220L422,258L484,398Z" fill="#9ad6b9" stroke="#9ad6b9" stroke-width="1.51"/><path d="M723,41L685,210L768,179Z" fill="#a0d4bc" stroke="#a0d4bc" stroke-width="1.51"/><path d="M484,398L413,588L534,478Z" fill="#72c0be" stroke="#72c0be" stroke-width="1.51"/><path d="M523,569L449,756L604,703Z" fill="#5f94b2" stroke="#5f94b2" stroke-width="1.51"/><path d="M376,597L413,588L319,530Z" fill="#85b9ba" stroke="#85b9ba" stroke-width="1.51"/><path d="M558,126L480,175L565,220Z" fill="#b0dfb7" stroke="#b0dfb7" stroke-width="1.51"/><path d="M847,85L723,41L768,179Z" fill="#a4d1bd" stroke="#a4d1bd" stroke-width="1.51"/><path d="M480,175L422,258L565,220Z" fill="#b0dfb7" stroke="#b0dfb7" stroke-width="1.51"/><path d="M1049,628L1202,527L1101,521Z" fill="#2673b2" stroke="#2673b2" stroke-width="1.51"/><path d="M1101,521L1233,388L1055,366Z" fill="#4386b2" stroke="#4386b2" stroke-width="1.51"/><path d="M1287,700L1202,527L1049,628Z" fill="#275fa9" stroke="#275fa9" stroke-width="1.51"/><path d="M413,588L449,756L523,569Z" fill="#6ea2b5" stroke="#6ea2b5" stroke-width="1.51"/><path d="M335,421L413,588L484,398Z" fill="#83c8bd" stroke="#83c8bd" stroke-width="1.51"/><path d="M1208,281L1141,184L1069,308Z" fill="#7995ad" stroke="#7995ad" stroke-width="1.51"/><path d="M1069,308L1141,184L1039,301Z" fill="#779bb1" stroke="#779bb1" stroke-width="1.51"/><path d="M1036,10L831,-34L847,85Z" fill="#a2c5ca" stroke="#a2c5ca" stroke-width="1.51"/><path d="M847,85L831,-34L723,41Z" fill="#a7d0c9" stroke="#a7d0c9" stroke-width="1.51"/><path d="M422,258L335,421L484,398Z" fill="#96d5ba" stroke="#96d5ba" stroke-width="1.51"/><path d="M818,826L842,889L915,767Z" fill="#2b619f" stroke="#2b619f" stroke-width="1.51"/><path d="M915,767L1118,829L980,663Z" fill="#285aa6" stroke="#285aa6" stroke-width="1.51"/><path d="M696,942L818,826L717,768Z" fill="#346a9c" stroke="#346a9c" stroke-width="1.51"/><path d="M1202,527L1233,388L1101,521Z" fill="#3878b0" stroke="#3878b0" stroke-width="1.51"/><path d="M1233,388L1208,281L1069,308Z" fill="#618aad" stroke="#618aad" stroke-width="1.51"/><path d="M723,41L593,26L558,126Z" fill="#b4dec1" stroke="#b4dec1" stroke-width="1.51"/><path d="M558,126L480,11L480,175Z" fill="#c0e5b7" stroke="#c0e5b7" stroke-width="1.51"/><path d="M376,597L449,756L413,588Z" fill="#7aa3b4" stroke="#7aa3b4" stroke-width="1.51"/><path d="M632,758L696,942L717,768Z" fill="#4172a2" stroke="#4172a2" stroke-width="1.51"/><path d="M244,722L368,833L449,756Z" fill="#848ea8" stroke="#848ea8" stroke-width="1.51"/><path d="M335,421L319,530L413,588Z" fill="#8bc4bc" stroke="#8bc4bc" stroke-width="1.51"/><path d="M1036,10L847,85L944,180Z" fill="#9dbdbb" stroke="#9dbdbb" stroke-width="1.51"/><path d="M723,41L679,-91L593,26Z" fill="#b3decd" stroke="#b3decd" stroke-width="1.51"/><path d="M1141,184L1036,10L944,180Z" fill="#97acb2" stroke="#97acb2" stroke-width="1.51"/><path d="M1121,-8L1036,10L1141,184Z" fill="#9ba6b7" stroke="#9ba6b7" stroke-width="1.51"/><path d="M588,916L696,942L632,758Z" fill="#416d93" stroke="#416d93" stroke-width="1.51"/><path d="M335,421L187,454L319,530Z" fill="#98cfbc" stroke="#98cfbc" stroke-width="1.51"/><path d="M422,258L309,251L335,421Z" fill="#aedeb7" stroke="#aedeb7" stroke-width="1.51"/><path d="M278,178L309,251L422,258Z" fill="#c9e9b4" stroke="#c9e9b4" stroke-width="1.51"/><path d="M278,178L422,258L480,175Z" fill="#c5e8b4" stroke="#c5e8b4" stroke-width="1.51"/><path d="M996,938L1118,829L915,767Z" fill="#204c93" stroke="#204c93" stroke-width="1.51"/><path d="M996,938L915,767L842,889Z" fill="#205693" stroke="#205693" stroke-width="1.51"/><path d="M518,900L588,916L632,758Z" fill="#4d7296" stroke="#4d7296" stroke-width="1.51"/><path d="M593,26L480,11L558,126Z" fill="#bde5c1" stroke="#bde5c1" stroke-width="1.51"/><path d="M534,-140L480,11L593,26Z" fill="#c3e7ca" stroke="#c3e7ca" stroke-width="1.51"/><path d="M772,1049L842,889L696,942Z" fill="#29618c" stroke="#29618c" stroke-width="1.51"/><path d="M449,756L518,900L632,758Z" fill="#5c7ca4" stroke="#5c7ca4" stroke-width="1.51"/><path d="M368,833L518,900L449,756Z" fill="#6c7f9c" stroke="#6c7f9c" stroke-width="1.51"/><path d="M1233,388L1358,216L1208,281Z" fill="#6c82a7" stroke="#6c82a7" stroke-width="1.51"/><path d="M1175,4L1121,-8L1141,184Z" fill="#9ba0b5" stroke="#9ba0b5" stroke-width="1.51"/><path d="M1202,527L1316,448L1233,388Z" fill="#3e74ad" stroke="#3e74ad" stroke-width="1.51"/><path d="M1315,548L1316,448L1202,527Z" fill="#3469a8" stroke="#3469a8" stroke-width="1.51"/><path d="M871,1034L996,938L842,889Z" fill="#1a548a" stroke="#1a548a" stroke-width="1.51"/><path d="M831,-34L679,-91L723,41Z" fill="#acd8cf" stroke="#acd8cf" stroke-width="1.51"/><path d="M806,-150L679,-91L831,-34Z" fill="#aad4cf" stroke="#aad4cf" stroke-width="1.51"/><path d="M1287,700L1315,548L1202,527Z" fill="#2a5ba6" stroke="#2a5ba6" stroke-width="1.51"/><path d="M1270,857L1226,772L1118,829Z" fill="#22378e" stroke="#22378e" stroke-width="1.51"/><path d="M1118,829L1226,772L1049,628Z" fill="#264c9f" stroke="#264c9f" stroke-width="1.51"/><path d="M959,-185L806,-150L831,-34Z" fill="#a5cace" stroke="#a5cace" stroke-width="1.51"/><path d="M1175,4L1141,184L1300,86Z" fill="#9897ad" stroke="#9897ad" stroke-width="1.51"/><path d="M1226,772L1287,700L1049,628Z" fill="#254da0" stroke="#254da0" stroke-width="1.51"/><path d="M480,11L278,178L480,175Z" fill="#d0ecb4" stroke="#d0ecb4" stroke-width="1.51"/><path d="M309,251L184,332L335,421Z" fill="#b0dfb7" stroke="#b0dfb7" stroke-width="1.51"/><path d="M244,722L449,756L376,597Z" fill="#849daf" stroke="#849daf" stroke-width="1.51"/><path d="M1300,86L1141,184L1208,281Z" fill="#8b91a9" stroke="#8b91a9" stroke-width="1.51"/><path d="M278,178L230,236L309,251Z" fill="#d1edb4" stroke="#d1edb4" stroke-width="1.51"/><path d="M319,530L244,722L376,597Z" fill="#8bb0b6" stroke="#8bb0b6" stroke-width="1.51"/><path d="M959,-185L1036,10L1110,-155Z" fill="#a0b1c5" stroke="#a0b1c5" stroke-width="1.51"/><path d="M959,-185L831,-34L1036,10Z" fill="#a2c0cb" stroke="#a2c0cb" stroke-width="1.51"/><path d="M184,332L187,454L335,421Z" fill="#a8d9ba" stroke="#a8d9ba" stroke-width="1.51"/><path d="M772,1049L871,1034L842,889Z" fill="#235b8c" stroke="#235b8c" stroke-width="1.51"/><path d="M996,938L1098,952L1118,829Z" fill="#163e7f" stroke="#163e7f" stroke-width="1.51"/><path d="M772,1049L696,942L544,1025Z" fill="#37688c" stroke="#37688c" stroke-width="1.51"/><path d="M1116,969L1098,952L1004,1096Z" fill="#163d7f" stroke="#163d7f" stroke-width="1.51"/><path d="M1226,772L1318,747L1287,700Z" fill="#243c95" stroke="#243c95" stroke-width="1.51"/><path d="M141,683L244,722L319,530Z" fill="#93acb2" stroke="#93acb2" stroke-width="1.51"/><path d="M544,1025L588,916L518,900Z" fill="#4a6f8a" stroke="#4a6f8a" stroke-width="1.51"/><path d="M544,1025L696,942L588,916Z" fill="#426b8b" stroke="#426b8b" stroke-width="1.51"/><path d="M230,236L184,332L309,251Z" fill="#c6e8b5" stroke="#c6e8b5" stroke-width="1.51"/><path d="M368,833L336,859L518,900Z" fill="#6e7d92" stroke="#6e7d92" stroke-width="1.51"/><path d="M244,722L336,859L368,833Z" fill="#8589a1" stroke="#8589a1" stroke-width="1.51"/><path d="M1270,857L1318,747L1226,772Z" fill="#243390" stroke="#243390" stroke-width="1.51"/><path d="M1287,700L1426,628L1315,548Z" fill="#224e95" stroke="#224e95" stroke-width="1.51"/><path d="M1434,195L1358,216L1482,386Z" fill="#66788b" stroke="#66788b" stroke-width="1.51"/><path d="M1316,448L1358,216L1233,388Z" fill="#5679a1" stroke="#5679a1" stroke-width="1.51"/><path d="M1482,386L1316,448L1486,556Z" fill="#2d648f" stroke="#2d648f" stroke-width="1.51"/><path d="M1098,952L1116,969L1118,829Z" fill="#17397d" stroke="#17397d" stroke-width="1.51"/><path d="M1004,1096L1098,952L996,938Z" fill="#184382" stroke="#184382" stroke-width="1.51"/><path d="M1358,216L1300,86L1208,281Z" fill="#8689a1" stroke="#8689a1" stroke-width="1.51"/><path d="M508,1030L544,1025L518,900Z" fill="#507089" stroke="#507089" stroke-width="1.51"/><path d="M679,-91L534,-140L593,26Z" fill="#bbe2cc" stroke="#bbe2cc" stroke-width="1.51"/><path d="M480,11L297,-58L278,178Z" fill="#e1f3be" stroke="#e1f3be" stroke-width="1.51"/><path d="M108,248L184,332L230,236Z" fill="#cdeab5" stroke="#cdeab5" stroke-width="1.51"/><path d="M521,-169L534,-140L679,-91Z" fill="#bde4cb" stroke="#bde4cb" stroke-width="1.51"/><path d="M1116,969L1270,857L1118,829Z" fill="#19347e" stroke="#19347e" stroke-width="1.51"/><path d="M544,1025L508,1030L772,1049Z" fill="#426b8b" stroke="#426b8b" stroke-width="1.51"/><path d="M329,1027L508,1030L518,900Z" fill="#5f7588" stroke="#5f7588" stroke-width="1.51"/><path d="M806,-150L521,-169L679,-91Z" fill="#b3ddce" stroke="#b3ddce" stroke-width="1.51"/><path d="M1110,-155L1036,10L1121,-8Z" fill="#9fa9c1" stroke="#9fa9c1" stroke-width="1.51"/><path d="M1110,-155L1121,-8L1175,4Z" fill="#9ea3bf" stroke="#9ea3bf" stroke-width="1.51"/><path d="M534,-140L386,-107L480,11Z" fill="#cfecc8" stroke="#cfecc8" stroke-width="1.51"/><path d="M959,-185L521,-169L806,-150Z" fill="#abd5ce" stroke="#abd5ce" stroke-width="1.51"/><path d="M1507,587L1426,628L1492,736Z" fill="#184281" stroke="#184281" stroke-width="1.51"/><path d="M1318,747L1426,628L1287,700Z" fill="#1f408e" stroke="#1f408e" stroke-width="1.51"/><path d="M521,-169L386,-107L534,-140Z" fill="#cdebc9" stroke="#cdebc9" stroke-width="1.51"/><path d="M108,248L102,327L184,332Z" fill="#c6e8bb" stroke="#c6e8bb" stroke-width="1.51"/><path d="M1289,-181L1110,-155L1175,4Z" fill="#9e9cbc" stroke="#9e9cbc" stroke-width="1.51"/><path d="M187,454L141,683L319,530Z" fill="#99c2bb" stroke="#99c2bb" stroke-width="1.51"/><path d="M244,722L225,916L336,859Z" fill="#86879a" stroke="#86879a" stroke-width="1.51"/><path d="M336,859L329,1027L518,900Z" fill="#6a7987" stroke="#6a7987" stroke-width="1.51"/><path d="M12,504L141,683L187,454Z" fill="#a1c7c2" stroke="#a1c7c2" stroke-width="1.51"/><path d="M184,332L102,327L187,454Z" fill="#b5dfbb" stroke="#b5dfbb" stroke-width="1.51"/><path d="M108,248L230,236L123,176Z" fill="#ddf2b6" stroke="#ddf2b6" stroke-width="1.51"/><path d="M1375,970L1375,896L1270,857Z" fill="#102368" stroke="#102368" stroke-width="1.51"/><path d="M871,1034L1004,1096L996,938Z" fill="#1a4d87" stroke="#1a4d87" stroke-width="1.51"/><path d="M772,1049L1004,1096L871,1034Z" fill="#1d568a" stroke="#1d568a" stroke-width="1.51"/><path d="M508,1030L1004,1096L772,1049Z" fill="#2a618c" stroke="#2a618c" stroke-width="1.51"/><path d="M1300,86L1359,53L1175,4Z" fill="#9990ad" stroke="#9990ad" stroke-width="1.51"/><path d="M1398,68L1359,53L1300,86Z" fill="#8f8a9d" stroke="#8f8a9d" stroke-width="1.51"/><path d="M1398,68L1300,86L1358,216Z" fill="#8b8896" stroke="#8b8896" stroke-width="1.51"/><path d="M1482,386L1358,216L1316,448Z" fill="#4f7293" stroke="#4f7293" stroke-width="1.51"/><path d="M386,-107L297,-58L480,11Z" fill="#def2c7" stroke="#def2c7" stroke-width="1.51"/><path d="M1486,556L1316,448L1315,548Z" fill="#2a6097" stroke="#2a6097" stroke-width="1.51"/><path d="M123,176L230,236L278,178Z" fill="#dcf1b3" stroke="#dcf1b3" stroke-width="1.51"/><path d="M297,-58L167,86L278,178Z" fill="#eaf7b9" stroke="#eaf7b9" stroke-width="1.51"/><path d="M167,86L123,176L278,178Z" fill="#e7f5b2" stroke="#e7f5b2" stroke-width="1.51"/><path d="M1507,587L1486,556L1426,628Z" fill="#1a4e88" stroke="#1a4e88" stroke-width="1.51"/><path d="M1426,628L1486,556L1315,548Z" fill="#1d538e" stroke="#1d538e" stroke-width="1.51"/><path d="M1434,195L1398,68L1358,216Z" fill="#80828e" stroke="#80828e" stroke-width="1.51"/><path d="M1359,53L1334,-126L1175,4Z" fill="#9a90b3" stroke="#9a90b3" stroke-width="1.51"/><path d="M90,786L225,916L244,722Z" fill="#938da0" stroke="#938da0" stroke-width="1.51"/><path d="M1492,736L1426,628L1318,747Z" fill="#1a3981" stroke="#1a3981" stroke-width="1.51"/><path d="M1486,556L1562,395L1482,386Z" fill="#2f668d" stroke="#2f668d" stroke-width="1.51"/><path d="M225,916L329,1027L336,859Z" fill="#777d87" stroke="#777d87" stroke-width="1.51"/><path d="M508,1030L0,1088L1004,1096Z" fill="#547289" stroke="#547289" stroke-width="1.51"/><path d="M1434,195L1450,110L1398,68Z" fill="#828288" stroke="#828288" stroke-width="1.51"/><path d="M1513,30L1450,110L1690,171Z" fill="#838287" stroke="#838287" stroke-width="1.51"/><path d="M1638,297L1434,195L1482,386Z" fill="#5c7488" stroke="#5c7488" stroke-width="1.51"/><path d="M1260,1071L1270,857L1116,969Z" fill="#172e78" stroke="#172e78" stroke-width="1.51"/><path d="M1270,857L1375,896L1318,747Z" fill="#1a2b7d" stroke="#1a2b7d" stroke-width="1.51"/><path d="M167,86L75,-28L123,176Z" fill="#f3fabe" stroke="#f3fabe" stroke-width="1.51"/><path d="M297,-58L157,33L167,86Z" fill="#f2fac1" stroke="#f2fac1" stroke-width="1.51"/><path d="M297,-58L249,-92L157,33Z" fill="#f1f9c5" stroke="#f1f9c5" stroke-width="1.51"/><path d="M386,-107L249,-92L297,-58Z" fill="#e9f6c6" stroke="#e9f6c6" stroke-width="1.51"/><path d="M521,-169L249,-92L386,-107Z" fill="#dff2c7" stroke="#dff2c7" stroke-width="1.51"/><path d="M1375,896L1492,736L1318,747Z" fill="#1a2b7b" stroke="#1a2b7b" stroke-width="1.51"/><path d="M141,683L90,786L244,722Z" fill="#989cad" stroke="#989cad" stroke-width="1.51"/><path d="M102,327L12,504L187,454Z" fill="#addac3" stroke="#addac3" stroke-width="1.51"/><path d="M-13,346L12,504L102,327Z" fill="#b7e0c9" stroke="#b7e0c9" stroke-width="1.51"/><path d="M-13,346L102,327L-10,253Z" fill="#c9e9c6" stroke="#c9e9c6" stroke-width="1.51"/><path d="M102,327L108,248L-10,253Z" fill="#d1ecc0" stroke="#d1ecc0" stroke-width="1.51"/><path d="M225,916L248,1023L329,1027Z" fill="#7a7e87" stroke="#7a7e87" stroke-width="1.51"/><path d="M37,677L90,786L141,683Z" fill="#9ba0b5" stroke="#9ba0b5" stroke-width="1.51"/><path d="M1619,490L1486,556L1507,587Z" fill="#1e578b" stroke="#1e578b" stroke-width="1.51"/><path d="M1619,490L1562,395L1486,556Z" fill="#29618c" stroke="#29618c" stroke-width="1.51"/><path d="M12,504L37,677L141,683Z" fill="#9fb7c1" stroke="#9fb7c1" stroke-width="1.51"/><path d="M1004,1096L1260,1071L1116,969Z" fill="#17377d" stroke="#17377d" stroke-width="1.51"/><path d="M1375,896L1507,952L1492,736Z" fill="#0d2162" stroke="#0d2162" stroke-width="1.51"/><path d="M1110,-155L1289,-181L959,-185Z" fill="#9ea5c0" stroke="#9ea5c0" stroke-width="1.51"/><path d="M1398,68L1334,-126L1359,53Z" fill="#928ba6" stroke="#928ba6" stroke-width="1.51"/><path d="M1513,30L1334,-126L1398,68Z" fill="#8c869c" stroke="#8c869c" stroke-width="1.51"/><path d="M113,1037L248,1023L225,916Z" fill="#818186" stroke="#818186" stroke-width="1.51"/><path d="M329,1027L0,1088L508,1030Z" fill="#787e87" stroke="#787e87" stroke-width="1.51"/><path d="M1260,1071L1375,970L1270,857Z" fill="#13266f" stroke="#13266f" stroke-width="1.51"/><path d="M1334,-126L1289,-181L1175,4Z" fill="#9c92b7" stroke="#9c92b7" stroke-width="1.51"/><path d="M-10,253L108,248L123,176Z" fill="#e0f3be" stroke="#e0f3be" stroke-width="1.51"/><path d="M12,504L-48,619L37,677Z" fill="#a2bdca" stroke="#a2bdca" stroke-width="1.51"/><path d="M75,-28L167,86L157,33Z" fill="#f6fcc5" stroke="#f6fcc5" stroke-width="1.51"/><path d="M-101,110L-10,253L123,176Z" fill="#ebf7c5" stroke="#ebf7c5" stroke-width="1.51"/><path d="M1690,171L1450,110L1434,195Z" fill="#7b7f86" stroke="#7b7f86" stroke-width="1.51"/><path d="M1670,583L1619,490L1507,587Z" fill="#1d568a" stroke="#1d568a" stroke-width="1.51"/><path d="M1670,583L1507,587L1492,736Z" fill="#184583" stroke="#184583" stroke-width="1.51"/><path d="M1450,110L1513,30L1398,68Z" fill="#85838d" stroke="#85838d" stroke-width="1.51"/><path d="M1334,-126L1508,-193L1289,-181Z" fill="#908aa3" stroke="#908aa3" stroke-width="1.51"/><path d="M1638,297L1482,386L1562,395Z" fill="#476d8a" stroke="#476d8a" stroke-width="1.51"/><path d="M249,-92L75,-28L157,33Z" fill="#f7fcc7" stroke="#f7fcc7" stroke-width="1.51"/><path d="M-99,464L12,504L-13,346Z" fill="#afdbce" stroke="#afdbce" stroke-width="1.51"/><path d="M-99,464L-48,619L12,504Z" fill="#a6ccce" stroke="#a6ccce" stroke-width="1.51"/><path d="M-59,799L29,904L90,786Z" fill="#958daa" stroke="#958daa" stroke-width="1.51"/><path d="M90,786L29,904L225,916Z" fill="#8b8796" stroke="#8b8796" stroke-width="1.51"/><path d="M1375,970L1457,969L1375,896Z" fill="#0b1f5e" stroke="#0b1f5e" stroke-width="1.51"/><path d="M1260,1071L1457,969L1375,970Z" fill="#0e2164" stroke="#0e2164" stroke-width="1.51"/><path d="M1733,445L1638,297L1562,395Z" fill="#426b8a" stroke="#426b8a" stroke-width="1.51"/><path d="M-99,464L-13,346L-245,278Z" fill="#bde4cb" stroke="#bde4cb" stroke-width="1.51"/><path d="M-231,446L-99,464L-245,278Z" fill="#b7e0cd" stroke="#b7e0cd" stroke-width="1.51"/><path d="M-59,799L37,677L-48,619Z" fill="#9ea5c0" stroke="#9ea5c0" stroke-width="1.51"/><path d="M-59,799L90,786L37,677Z" fill="#9d9ab9" stroke="#9d9ab9" stroke-width="1.51"/><path d="M1457,969L1507,952L1375,896Z" fill="#081d58" stroke="#081d58" stroke-width="1.51"/><path d="M1577,945L1507,952L1589,1023Z" fill="#081d58" stroke="#081d58" stroke-width="1.51"/><path d="M29,904L113,1037L225,916Z" fill="#85828c" stroke="#85828c" stroke-width="1.51"/><path d="M248,1023L0,1088L329,1027Z" fill="#818186" stroke="#818186" stroke-width="1.51"/><path d="M1619,490L1733,445L1562,395Z" fill="#30668c" stroke="#30668c" stroke-width="1.51"/><path d="M1664,770L1670,583L1492,736Z" fill="#17397d" stroke="#17397d" stroke-width="1.51"/><path d="M-173,741L-59,799L-48,619Z" fill="#9ea1be" stroke="#9ea1be" stroke-width="1.51"/><path d="M29,904L0,1088L113,1037Z" fill="#878493" stroke="#878493" stroke-width="1.51"/><path d="M1513,30L1567,-54L1334,-126Z" fill="#898498" stroke="#898498" stroke-width="1.51"/><path d="M1690,171L1567,-54L1513,30Z" fill="#868390" stroke="#868390" stroke-width="1.51"/><path d="M-99,464L-140,574L-48,619Z" fill="#a4c8cd" stroke="#a4c8cd" stroke-width="1.51"/><path d="M-231,446L-140,574L-99,464Z" fill="#a9d2cf" stroke="#a9d2cf" stroke-width="1.51"/><path d="M75,-28L-55,30L123,176Z" fill="#f8fcc9" stroke="#f8fcc9" stroke-width="1.51"/><path d="M75,-28L-8,-97L-55,30Z" fill="#ffffd9" stroke="#ffffd9" stroke-width="1.51"/><path d="M249,-92L48,-142L75,-28Z" fill="#f9fdcb" stroke="#f9fdcb" stroke-width="1.51"/><path d="M521,-169L48,-142L249,-92Z" fill="#edf8c6" stroke="#edf8c6" stroke-width="1.51"/><path d="M1577,945L1664,770L1492,736Z" fill="#13256e" stroke="#13256e" stroke-width="1.51"/><path d="M1507,952L1577,945L1492,736Z" fill="#0b1f5d" stroke="#0b1f5d" stroke-width="1.51"/><path d="M1589,1023L1507,952L1457,969Z" fill="#081d58" stroke="#081d58" stroke-width="1.51"/><path d="M-55,30L-101,110L123,176Z" fill="#f7fcc7" stroke="#f7fcc7" stroke-width="1.51"/><path d="M1733,445L1619,490L1670,583Z" fill="#255d8c" stroke="#255d8c" stroke-width="1.51"/><path d="M1696,175L1690,171L1638,297Z" fill="#727b87" stroke="#727b87" stroke-width="1.51"/><path d="M1638,297L1690,171L1434,195Z" fill="#717b87" stroke="#717b87" stroke-width="1.51"/><path d="M1664,770L1717,613L1670,583Z" fill="#174181" stroke="#174181" stroke-width="1.51"/><path d="M1805,480L1733,445L1670,583Z" fill="#265d8c" stroke="#265d8c" stroke-width="1.51"/><path d="M1800,-52L1577,-86L1567,-54Z" fill="#898498" stroke="#898498" stroke-width="1.51"/><path d="M1772,307L1696,175L1638,297Z" fill="#667787" stroke="#667787" stroke-width="1.51"/><path d="M1800,-52L1567,-54L1690,171Z" fill="#888494" stroke="#888494" stroke-width="1.51"/><path d="M1567,-54L1508,-193L1334,-126Z" fill="#898498" stroke="#898498" stroke-width="1.51"/><path d="M-55,30L-208,69L-101,110Z" fill="#fafdcd" stroke="#fafdcd" stroke-width="1.51"/><path d="M48,-142L-8,-97L75,-28Z" fill="#fdffd5" stroke="#fdffd5" stroke-width="1.51"/><path d="M1577,-86L1508,-193L1567,-54Z" fill="#898498" stroke="#898498" stroke-width="1.51"/><path d="M1289,-181L1508,-193L959,-185Z" fill="#9d94b9" stroke="#9d94b9" stroke-width="1.51"/><path d="M1260,1071L1589,1023L1457,969Z" fill="#081d58" stroke="#081d58" stroke-width="1.51"/><path d="M1577,945L1726,814L1664,770Z" fill="#102267" stroke="#102267" stroke-width="1.51"/><path d="M1664,770L1726,814L1717,613Z" fill="#17327a" stroke="#17327a" stroke-width="1.51"/><path d="M1733,445L1772,307L1638,297Z" fill="#496e89" stroke="#496e89" stroke-width="1.51"/><path d="M1696,175L1800,-52L1690,171Z" fill="#838288" stroke="#838288" stroke-width="1.51"/><path d="M1805,480L1772,307L1733,445Z" fill="#3a698b" stroke="#3a698b" stroke-width="1.51"/><path d="M-140,574L-173,741L-48,619Z" fill="#a0b2c5" stroke="#a0b2c5" stroke-width="1.51"/><path d="M-94,954L0,1088L29,904Z" fill="#898498" stroke="#898498" stroke-width="1.51"/><path d="M-236,702L-173,741L-140,574Z" fill="#9fabc2" stroke="#9fabc2" stroke-width="1.51"/><path d="M1717,613L1805,480L1670,583Z" fill="#1b558a" stroke="#1b558a" stroke-width="1.51"/><path d="M1801,900L1726,814L1577,945Z" fill="#0a1e5b" stroke="#0a1e5b" stroke-width="1.51"/><path d="M-245,278L-13,346L-10,253Z" fill="#cfecc8" stroke="#cfecc8" stroke-width="1.51"/><path d="M-94,954L29,904L-59,799Z" fill="#8c869c" stroke="#8c869c" stroke-width="1.51"/><path d="M113,1037L0,1088L248,1023Z" fill="#85828c" stroke="#85828c" stroke-width="1.51"/><path d="M-175,842L-94,954L-59,799Z" fill="#8f89a2" stroke="#8f89a2" stroke-width="1.51"/><path d="M1801,900L1805,480L1717,613Z" fill="#173f80" stroke="#173f80" stroke-width="1.51"/><path d="M-173,741L-175,842L-59,799Z" fill="#9c92b6" stroke="#9c92b6" stroke-width="1.51"/><path d="M-94,954L-171,1017L0,1088Z" fill="#898498" stroke="#898498" stroke-width="1.51"/><path d="M-236,702L-175,842L-173,741Z" fill="#9e98bb" stroke="#9e98bb" stroke-width="1.51"/><path d="M-101,110L-245,278L-10,253Z" fill="#e5f5c6" stroke="#e5f5c6" stroke-width="1.51"/><path d="M-208,69L-245,278L-101,110Z" fill="#f0f9c5" stroke="#f0f9c5" stroke-width="1.51"/><path d="M-231,446L-236,702L-140,574Z" fill="#a3c4cc" stroke="#a3c4cc" stroke-width="1.51"/><path d="M-245,278L-236,702L-231,446Z" fill="#abd6ce" stroke="#abd6ce" stroke-width="1.51"/><path d="M-173,-36L-208,69L-55,30Z" fill="#feffd5" stroke="#feffd5" stroke-width="1.51"/><path d="M-139,-118L-173,-36L-55,30Z" fill="#ffffd9" stroke="#ffffd9" stroke-width="1.51"/><path d="M-139,-118L-55,30L-8,-97Z" fill="#ffffd9" stroke="#ffffd9" stroke-width="1.51"/><path d="M48,-142L-139,-118L-8,-97Z" fill="#ffffd9" stroke="#ffffd9" stroke-width="1.51"/><path d="M-236,702L-171,1017L-175,842Z" fill="#918aa5" stroke="#918aa5" stroke-width="1.51"/><path d="M-175,842L-171,1017L-94,954Z" fill="#898498" stroke="#898498" stroke-width="1.51"/><path d="M1726,814L1801,900L1717,613Z" fill="#172b76" stroke="#172b76" stroke-width="1.51"/><path d="M1589,1023L1801,900L1577,945Z" fill="#081d58" stroke="#081d58" stroke-width="1.51"/><path d="M1577,-86L1817,-98L1508,-193Z" fill="#898498" stroke="#898498" stroke-width="1.51"/><path d="M1772,307L1800,-52L1696,175Z" fill="#7e8086" stroke="#7e8086" stroke-width="1.51"/><path d="M1817,-98L1800,-52L1772,307Z" fill="#86838f" stroke="#86838f" stroke-width="1.51"/><path d="M1800,-52L1817,-98L1577,-86Z" fill="#898498" stroke="#898498" stroke-width="1.51"/><path d="M1805,480L1817,-98L1772,307Z" fill="#6f7b87" stroke="#6f7b87" stroke-width="1.51"/><path d="M1801,900L1817,-98L1805,480Z" fill="#35678c" stroke="#35678c" stroke-width="1.51"/><path d="M1004,1096L1766,1083L1260,1071Z" fill="#102368" stroke="#102368" stroke-width="1.51"/><path d="M1260,1071L1766,1083L1589,1023Z" fill="#081d58" stroke="#081d58" stroke-width="1.51"/><path d="M1589,1023L1766,1083L1801,900Z" fill="#081d58" stroke="#081d58" stroke-width="1.51"/></svg>